<svg width="206" height="67" viewBox="0 0 206 67" fill="none" xmlns="http://www.w3.org/2000/svg">
<path fill-rule="evenodd" clip-rule="evenodd" d="M14.5441 11.7524C13.9583 12.3382 13.9583 13.281 13.9583 15.1667V54.625C13.9583 56.5106 13.9583 57.4534 14.5441 58.0392C15.1299 58.625 16.0727 58.625 17.9583 58.625H49.0416C50.9273 58.625 51.8701 58.625 52.4559 58.0392C53.0416 57.4534 53.0416 56.5106 53.0416 54.625V15.1667C53.0416 13.281 53.0416 12.3382 52.4559 11.7524C51.8701 11.1667 50.9273 11.1667 49.0416 11.1667H17.9583C16.0727 11.1667 15.1299 11.1667 14.5441 11.7524ZM25.125 24.125C24.5727 24.125 24.125 24.5727 24.125 25.125C24.125 25.6773 24.5727 26.125 25.125 26.125H41.875C42.4273 26.125 42.875 25.6773 42.875 25.125C42.875 24.5727 42.4273 24.125 41.875 24.125H25.125ZM25.125 35.2917C24.5727 35.2917 24.125 35.7394 24.125 36.2917C24.125 36.8439 24.5727 37.2917 25.125 37.2917H41.875C42.4273 37.2917 42.875 36.8439 42.875 36.2917C42.875 35.7394 42.4273 35.2917 41.875 35.2917H25.125ZM25.125 46.4583C24.5727 46.4583 24.125 46.906 24.125 47.4583C24.125 48.0106 24.5727 48.4583 25.125 48.4583H36.2916C36.8439 48.4583 37.2916 48.0106 37.2916 47.4583C37.2916 46.906 36.8439 46.4583 36.2916 46.4583H25.125Z" fill="#4D1DAB"/>
<path d="M70.32 32.14C69.2933 32.14 68.3733 31.9733 67.56 31.64C66.7467 31.3067 66.0933 30.8133 65.6 30.16C65.12 29.5067 64.8667 28.72 64.84 27.8H68.48C68.5333 28.32 68.7133 28.72 69.02 29C69.3267 29.2667 69.7267 29.4 70.22 29.4C70.7267 29.4 71.1267 29.2867 71.42 29.06C71.7133 28.82 71.86 28.4933 71.86 28.08C71.86 27.7333 71.74 27.4467 71.5 27.22C71.2733 26.9933 70.9867 26.8067 70.64 26.66C70.3067 26.5133 69.8267 26.3467 69.2 26.16C68.2933 25.88 67.5533 25.6 66.98 25.32C66.4067 25.04 65.9133 24.6267 65.5 24.08C65.0867 23.5333 64.88 22.82 64.88 21.94C64.88 20.6333 65.3533 19.6133 66.3 18.88C67.2467 18.1333 68.48 17.76 70 17.76C71.5467 17.76 72.7933 18.1333 73.74 18.88C74.6867 19.6133 75.1933 20.64 75.26 21.96H71.56C71.5333 21.5067 71.3667 21.1533 71.06 20.9C70.7533 20.6333 70.36 20.5 69.88 20.5C69.4667 20.5 69.1333 20.6133 68.88 20.84C68.6267 21.0533 68.5 21.3667 68.5 21.78C68.5 22.2333 68.7133 22.5867 69.14 22.84C69.5667 23.0933 70.2333 23.3667 71.14 23.66C72.0467 23.9667 72.78 24.26 73.34 24.54C73.9133 24.82 74.4067 25.2267 74.82 25.76C75.2333 26.2933 75.44 26.98 75.44 27.82C75.44 28.62 75.2333 29.3467 74.82 30C74.42 30.6533 73.8333 31.1733 73.06 31.56C72.2867 31.9467 71.3733 32.14 70.32 32.14ZM88.0647 26.24C88.0647 26.56 88.0447 26.8933 88.0047 27.24H80.2647C80.318 27.9333 80.538 28.4667 80.9247 28.84C81.3247 29.2 81.8114 29.38 82.3847 29.38C83.238 29.38 83.8314 29.02 84.1647 28.3H87.8047C87.618 29.0333 87.278 29.6933 86.7847 30.28C86.3047 30.8667 85.698 31.3267 84.9647 31.66C84.2314 31.9933 83.4114 32.16 82.5047 32.16C81.4114 32.16 80.438 31.9267 79.5847 31.46C78.7314 30.9933 78.0647 30.3267 77.5847 29.46C77.1047 28.5933 76.8647 27.58 76.8647 26.42C76.8647 25.26 77.098 24.2467 77.5647 23.38C78.0447 22.5133 78.7114 21.8467 79.5647 21.38C80.418 20.9133 81.398 20.68 82.5047 20.68C83.5847 20.68 84.5447 20.9067 85.3847 21.36C86.2247 21.8133 86.878 22.46 87.3447 23.3C87.8247 24.14 88.0647 25.12 88.0647 26.24ZM84.5647 25.34C84.5647 24.7533 84.3647 24.2867 83.9647 23.94C83.5647 23.5933 83.0647 23.42 82.4647 23.42C81.8914 23.42 81.4047 23.5867 81.0047 23.92C80.618 24.2533 80.378 24.7267 80.2847 25.34H84.5647ZM105.889 20.84L102.869 32H99.0889L97.3289 24.76L95.5089 32H91.7489L88.7089 20.84H92.1289L93.7089 28.82L95.5889 20.84H99.2089L101.109 28.78L102.669 20.84H105.889ZM106.513 26.4C106.513 25.2533 106.726 24.2467 107.153 23.38C107.593 22.5133 108.186 21.8467 108.933 21.38C109.68 20.9133 110.513 20.68 111.433 20.68C112.22 20.68 112.906 20.84 113.493 21.16C114.093 21.48 114.553 21.9 114.873 22.42V20.84H118.293V32H114.873V30.42C114.54 30.94 114.073 31.36 113.473 31.68C112.886 32 112.2 32.16 111.413 32.16C110.506 32.16 109.68 31.9267 108.933 31.46C108.186 30.98 107.593 30.3067 107.153 29.44C106.726 28.56 106.513 27.5467 106.513 26.4ZM114.873 26.42C114.873 25.5667 114.633 24.8933 114.153 24.4C113.686 23.9067 113.113 23.66 112.433 23.66C111.753 23.66 111.173 23.9067 110.693 24.4C110.226 24.88 109.993 25.5467 109.993 26.4C109.993 27.2533 110.226 27.9333 110.693 28.44C111.173 28.9333 111.753 29.18 112.433 29.18C113.113 29.18 113.686 28.9333 114.153 28.44C114.633 27.9467 114.873 27.2733 114.873 26.42ZM134.326 22.4C134.072 21.9333 133.706 21.58 133.226 21.34C132.759 21.0867 132.206 20.96 131.566 20.96C130.459 20.96 129.572 21.3267 128.906 22.06C128.239 22.78 127.906 23.7467 127.906 24.96C127.906 26.2533 128.252 27.2667 128.946 28C129.652 28.72 130.619 29.08 131.846 29.08C132.686 29.08 133.392 28.8667 133.966 28.44C134.552 28.0133 134.979 27.4 135.246 26.6H130.906V24.08H138.346V27.26C138.092 28.1133 137.659 28.9067 137.046 29.64C136.446 30.3733 135.679 30.9667 134.746 31.42C133.812 31.8733 132.759 32.1 131.586 32.1C130.199 32.1 128.959 31.8 127.866 31.2C126.786 30.5867 125.939 29.74 125.326 28.66C124.726 27.58 124.426 26.3467 124.426 24.96C124.426 23.5733 124.726 22.34 125.326 21.26C125.939 20.1667 126.786 19.32 127.866 18.72C128.946 18.1067 130.179 17.8 131.566 17.8C133.246 17.8 134.659 18.2067 135.806 19.02C136.966 19.8333 137.732 20.96 138.106 22.4H134.326ZM150.76 26.24C150.76 26.56 150.74 26.8933 150.7 27.24H142.96C143.013 27.9333 143.233 28.4667 143.62 28.84C144.02 29.2 144.507 29.38 145.08 29.38C145.933 29.38 146.527 29.02 146.86 28.3H150.5C150.313 29.0333 149.973 29.6933 149.48 30.28C149 30.8667 148.393 31.3267 147.66 31.66C146.927 31.9933 146.107 32.16 145.2 32.16C144.107 32.16 143.133 31.9267 142.28 31.46C141.427 30.9933 140.76 30.3267 140.28 29.46C139.8 28.5933 139.56 27.58 139.56 26.42C139.56 25.26 139.793 24.2467 140.26 23.38C140.74 22.5133 141.407 21.8467 142.26 21.38C143.113 20.9133 144.093 20.68 145.2 20.68C146.28 20.68 147.24 20.9067 148.08 21.36C148.92 21.8133 149.573 22.46 150.04 23.3C150.52 24.14 150.76 25.12 150.76 26.24ZM147.26 25.34C147.26 24.7533 147.06 24.2867 146.66 23.94C146.26 23.5933 145.76 23.42 145.16 23.42C144.587 23.42 144.1 23.5867 143.7 23.92C143.313 24.2533 143.073 24.7267 142.98 25.34H147.26ZM151.884 26.4C151.884 25.2533 152.098 24.2467 152.524 23.38C152.964 22.5133 153.558 21.8467 154.304 21.38C155.051 20.9133 155.884 20.68 156.804 20.68C157.538 20.68 158.204 20.8333 158.804 21.14C159.418 21.4467 159.898 21.86 160.244 22.38V17.2H163.664V32H160.244V30.4C159.924 30.9333 159.464 31.36 158.864 31.68C158.278 32 157.591 32.16 156.804 32.16C155.884 32.16 155.051 31.9267 154.304 31.46C153.558 30.98 152.964 30.3067 152.524 29.44C152.098 28.56 151.884 27.5467 151.884 26.4ZM160.244 26.42C160.244 25.5667 160.004 24.8933 159.524 24.4C159.058 23.9067 158.484 23.66 157.804 23.66C157.124 23.66 156.544 23.9067 156.064 24.4C155.598 24.88 155.364 25.5467 155.364 26.4C155.364 27.2533 155.598 27.9333 156.064 28.44C156.544 28.9333 157.124 29.18 157.804 29.18C158.484 29.18 159.058 28.9333 159.524 28.44C160.004 27.9467 160.244 27.2733 160.244 26.42ZM177.158 20.84V32H173.738V30.48C173.392 30.9733 172.918 31.3733 172.318 31.68C171.732 31.9733 171.078 32.12 170.358 32.12C169.505 32.12 168.752 31.9333 168.098 31.56C167.445 31.1733 166.938 30.62 166.578 29.9C166.218 29.18 166.038 28.3333 166.038 27.36V20.84H169.438V26.9C169.438 27.6467 169.632 28.2267 170.018 28.64C170.405 29.0533 170.925 29.26 171.578 29.26C172.245 29.26 172.772 29.0533 173.158 28.64C173.545 28.2267 173.738 27.6467 173.738 26.9V20.84H177.158ZM186.415 20.72C187.722 20.72 188.762 21.1467 189.535 22C190.322 22.84 190.715 24 190.715 25.48V32H187.315V25.94C187.315 25.1933 187.122 24.6133 186.735 24.2C186.348 23.7867 185.828 23.58 185.175 23.58C184.522 23.58 184.002 23.7867 183.615 24.2C183.228 24.6133 183.035 25.1933 183.035 25.94V32H179.615V20.84H183.035V22.32C183.382 21.8267 183.848 21.44 184.435 21.16C185.022 20.8667 185.682 20.72 186.415 20.72ZM197.332 20.68C198.118 20.68 198.805 20.84 199.392 21.16C199.992 21.48 200.452 21.9 200.772 22.42V20.84H204.192V31.98C204.192 33.0067 203.985 33.9333 203.572 34.76C203.172 35.6 202.552 36.2667 201.712 36.76C200.885 37.2533 199.852 37.5 198.612 37.5C196.958 37.5 195.618 37.1067 194.592 36.32C193.565 35.5467 192.978 34.4933 192.832 33.16H196.212C196.318 33.5867 196.572 33.92 196.972 34.16C197.372 34.4133 197.865 34.54 198.452 34.54C199.158 34.54 199.718 34.3333 200.132 33.92C200.558 33.52 200.772 32.8733 200.772 31.98V30.4C200.438 30.92 199.978 31.3467 199.392 31.68C198.805 32 198.118 32.16 197.332 32.16C196.412 32.16 195.578 31.9267 194.832 31.46C194.085 30.98 193.492 30.3067 193.052 29.44C192.625 28.56 192.412 27.5467 192.412 26.4C192.412 25.2533 192.625 24.2467 193.052 23.38C193.492 22.5133 194.085 21.8467 194.832 21.38C195.578 20.9133 196.412 20.68 197.332 20.68ZM200.772 26.42C200.772 25.5667 200.532 24.8933 200.052 24.4C199.585 23.9067 199.012 23.66 198.332 23.66C197.652 23.66 197.072 23.9067 196.592 24.4C196.125 24.88 195.892 25.5467 195.892 26.4C195.892 27.2533 196.125 27.9333 196.592 28.44C197.072 28.9333 197.652 29.18 198.332 29.18C199.012 29.18 199.585 28.9333 200.052 28.44C200.532 27.9467 200.772 27.2733 200.772 26.42Z" fill="#211B3D"/>
<path d="M64.516 46.812C64.516 45.996 64.7 45.264 65.068 44.616C65.436 43.96 65.936 43.448 66.568 43.08C67.208 42.712 67.916 42.528 68.692 42.528C69.604 42.528 70.4 42.748 71.08 43.188C71.76 43.628 72.256 44.252 72.568 45.06H71.26C71.028 44.556 70.692 44.168 70.252 43.896C69.82 43.624 69.3 43.488 68.692 43.488C68.108 43.488 67.584 43.624 67.12 43.896C66.656 44.168 66.292 44.556 66.028 45.06C65.764 45.556 65.632 46.14 65.632 46.812C65.632 47.476 65.764 48.06 66.028 48.564C66.292 49.06 66.656 49.444 67.12 49.716C67.584 49.988 68.108 50.124 68.692 50.124C69.3 50.124 69.82 49.992 70.252 49.728C70.692 49.456 71.028 49.068 71.26 48.564H72.568C72.256 49.364 71.76 49.984 71.08 50.424C70.4 50.856 69.604 51.072 68.692 51.072C67.916 51.072 67.208 50.892 66.568 50.532C65.936 50.164 65.436 49.656 65.068 49.008C64.7 48.36 64.516 47.628 64.516 46.812ZM80.1935 47.46C80.1935 47.668 80.1815 47.888 80.1575 48.12H74.9015C74.9415 48.768 75.1615 49.276 75.5615 49.644C75.9695 50.004 76.4615 50.184 77.0375 50.184C77.5095 50.184 77.9015 50.076 78.2135 49.86C78.5335 49.636 78.7575 49.34 78.8855 48.972H80.0615C79.8855 49.604 79.5335 50.12 79.0055 50.52C78.4775 50.912 77.8215 51.108 77.0375 51.108C76.4135 51.108 75.8535 50.968 75.3575 50.688C74.8695 50.408 74.4855 50.012 74.2055 49.5C73.9255 48.98 73.7855 48.38 73.7855 47.7C73.7855 47.02 73.9215 46.424 74.1935 45.912C74.4655 45.4 74.8455 45.008 75.3335 44.736C75.8295 44.456 76.3975 44.316 77.0375 44.316C77.6615 44.316 78.2135 44.452 78.6935 44.724C79.1735 44.996 79.5415 45.372 79.7975 45.852C80.0615 46.324 80.1935 46.86 80.1935 47.46ZM79.0655 47.232C79.0655 46.816 78.9735 46.46 78.7895 46.164C78.6055 45.86 78.3535 45.632 78.0335 45.48C77.7215 45.32 77.3735 45.24 76.9895 45.24C76.4375 45.24 75.9655 45.416 75.5735 45.768C75.1895 46.12 74.9695 46.608 74.9135 47.232H79.0655ZM82.7269 45.636C82.9429 45.26 83.2629 44.948 83.6869 44.7C84.1189 44.444 84.6189 44.316 85.1869 44.316C85.7709 44.316 86.2989 44.456 86.7709 44.736C87.2509 45.016 87.6269 45.412 87.8989 45.924C88.1709 46.428 88.3069 47.016 88.3069 47.688C88.3069 48.352 88.1709 48.944 87.8989 49.464C87.6269 49.984 87.2509 50.388 86.7709 50.676C86.2989 50.964 85.7709 51.108 85.1869 51.108C84.6269 51.108 84.1309 50.984 83.6989 50.736C83.2749 50.48 82.9509 50.164 82.7269 49.788V54.12H81.6349V44.424H82.7269V45.636ZM87.1909 47.688C87.1909 47.192 87.0909 46.76 86.8909 46.392C86.6909 46.024 86.4189 45.744 86.0749 45.552C85.7389 45.36 85.3669 45.264 84.9589 45.264C84.5589 45.264 84.1869 45.364 83.8429 45.564C83.5069 45.756 83.2349 46.04 83.0269 46.416C82.8269 46.784 82.7269 47.212 82.7269 47.7C82.7269 48.196 82.8269 48.632 83.0269 49.008C83.2349 49.376 83.5069 49.66 83.8429 49.86C84.1869 50.052 84.5589 50.148 84.9589 50.148C85.3669 50.148 85.7389 50.052 86.0749 49.86C86.4189 49.66 86.6909 49.376 86.8909 49.008C87.0909 48.632 87.1909 48.192 87.1909 47.688ZM89.3363 47.688C89.3363 47.016 89.4723 46.428 89.7443 45.924C90.0163 45.412 90.3883 45.016 90.8603 44.736C91.3403 44.456 91.8723 44.316 92.4563 44.316C93.0323 44.316 93.5323 44.44 93.9563 44.688C94.3803 44.936 94.6963 45.248 94.9043 45.624V44.424H96.0083V51H94.9043V49.776C94.6883 50.16 94.3643 50.48 93.9323 50.736C93.5083 50.984 93.0123 51.108 92.4443 51.108C91.8603 51.108 91.3323 50.964 90.8603 50.676C90.3883 50.388 90.0163 49.984 89.7443 49.464C89.4723 48.944 89.3363 48.352 89.3363 47.688ZM94.9043 47.7C94.9043 47.204 94.8043 46.772 94.6043 46.404C94.4043 46.036 94.1323 45.756 93.7883 45.564C93.4523 45.364 93.0803 45.264 92.6723 45.264C92.2643 45.264 91.8923 45.36 91.5563 45.552C91.2203 45.744 90.9523 46.024 90.7523 46.392C90.5523 46.76 90.4523 47.192 90.4523 47.688C90.4523 48.192 90.5523 48.632 90.7523 49.008C90.9523 49.376 91.2203 49.66 91.5563 49.86C91.8923 50.052 92.2643 50.148 92.6723 50.148C93.0803 50.148 93.4523 50.052 93.7883 49.86C94.1323 49.66 94.4043 49.376 94.6043 49.008C94.8043 48.632 94.9043 48.196 94.9043 47.7ZM99.1857 45.324V49.2C99.1857 49.52 99.2537 49.748 99.3897 49.884C99.5257 50.012 99.7617 50.076 100.098 50.076H100.902V51H99.9177C99.3097 51 98.8537 50.86 98.5497 50.58C98.2457 50.3 98.0937 49.84 98.0937 49.2V45.324H97.2417V44.424H98.0937V42.768H99.1857V44.424H100.902V45.324H99.1857ZM108.028 42.636C108.94 42.636 109.728 42.808 110.392 43.152C111.064 43.488 111.576 43.972 111.928 44.604C112.288 45.236 112.468 45.98 112.468 46.836C112.468 47.692 112.288 48.436 111.928 49.068C111.576 49.692 111.064 50.172 110.392 50.508C109.728 50.836 108.94 51 108.028 51H105.424V42.636H108.028ZM108.028 50.1C109.108 50.1 109.932 49.816 110.5 49.248C111.068 48.672 111.352 47.868 111.352 46.836C111.352 45.796 111.064 44.984 110.488 44.4C109.92 43.816 109.1 43.524 108.028 43.524H106.516V50.1H108.028ZM113.5 47.688C113.5 47.016 113.636 46.428 113.908 45.924C114.18 45.412 114.552 45.016 115.024 44.736C115.504 44.456 116.036 44.316 116.62 44.316C117.196 44.316 117.696 44.44 118.12 44.688C118.544 44.936 118.86 45.248 119.068 45.624V44.424H120.172V51H119.068V49.776C118.852 50.16 118.528 50.48 118.096 50.736C117.672 50.984 117.176 51.108 116.608 51.108C116.024 51.108 115.496 50.964 115.024 50.676C114.552 50.388 114.18 49.984 113.908 49.464C113.636 48.944 113.5 48.352 113.5 47.688ZM119.068 47.7C119.068 47.204 118.968 46.772 118.768 46.404C118.568 46.036 118.296 45.756 117.952 45.564C117.616 45.364 117.244 45.264 116.836 45.264C116.428 45.264 116.056 45.36 115.72 45.552C115.384 45.744 115.116 46.024 114.916 46.392C114.716 46.76 114.616 47.192 114.616 47.688C114.616 48.192 114.716 48.632 114.916 49.008C115.116 49.376 115.384 49.66 115.72 49.86C116.056 50.052 116.428 50.148 116.836 50.148C117.244 50.148 117.616 50.052 117.952 49.86C118.296 49.66 118.568 49.376 118.768 49.008C118.968 48.632 119.068 48.196 119.068 47.7ZM125.222 44.304C126.022 44.304 126.67 44.548 127.166 45.036C127.662 45.516 127.91 46.212 127.91 47.124V51H126.83V47.28C126.83 46.624 126.666 46.124 126.338 45.78C126.01 45.428 125.562 45.252 124.994 45.252C124.418 45.252 123.958 45.432 123.614 45.792C123.278 46.152 123.11 46.676 123.11 47.364V51H122.018V44.424H123.11V45.36C123.326 45.024 123.618 44.764 123.986 44.58C124.362 44.396 124.774 44.304 125.222 44.304ZM137.837 49.14H134.189L133.517 51H132.365L135.389 42.684H136.649L139.661 51H138.509L137.837 49.14ZM137.525 48.252L136.013 44.028L134.501 48.252H137.525ZM148.887 44.304C149.399 44.304 149.855 44.412 150.255 44.628C150.655 44.836 150.971 45.152 151.203 45.576C151.435 46 151.551 46.516 151.551 47.124V51H150.471V47.28C150.471 46.624 150.307 46.124 149.979 45.78C149.659 45.428 149.223 45.252 148.671 45.252C148.103 45.252 147.651 45.436 147.315 45.804C146.979 46.164 146.811 46.688 146.811 47.376V51H145.731V47.28C145.731 46.624 145.567 46.124 145.239 45.78C144.919 45.428 144.483 45.252 143.931 45.252C143.363 45.252 142.911 45.436 142.575 45.804C142.239 46.164 142.071 46.688 142.071 47.376V51H140.979V44.424H142.071V45.372C142.287 45.028 142.575 44.764 142.935 44.58C143.303 44.396 143.707 44.304 144.147 44.304C144.699 44.304 145.187 44.428 145.611 44.676C146.035 44.924 146.351 45.288 146.559 45.768C146.743 45.304 147.047 44.944 147.471 44.688C147.895 44.432 148.367 44.304 148.887 44.304ZM152.934 47.688C152.934 47.016 153.07 46.428 153.342 45.924C153.614 45.412 153.986 45.016 154.458 44.736C154.938 44.456 155.47 44.316 156.054 44.316C156.63 44.316 157.13 44.44 157.554 44.688C157.978 44.936 158.294 45.248 158.502 45.624V44.424H159.606V51H158.502V49.776C158.286 50.16 157.962 50.48 157.53 50.736C157.106 50.984 156.61 51.108 156.042 51.108C155.458 51.108 154.93 50.964 154.458 50.676C153.986 50.388 153.614 49.984 153.342 49.464C153.07 48.944 152.934 48.352 152.934 47.688ZM158.502 47.7C158.502 47.204 158.402 46.772 158.202 46.404C158.002 46.036 157.73 45.756 157.386 45.564C157.05 45.364 156.678 45.264 156.27 45.264C155.862 45.264 155.49 45.36 155.154 45.552C154.818 45.744 154.55 46.024 154.35 46.392C154.15 46.76 154.05 47.192 154.05 47.688C154.05 48.192 154.15 48.632 154.35 49.008C154.55 49.376 154.818 49.66 155.154 49.86C155.49 50.052 155.862 50.148 156.27 50.148C156.678 50.148 157.05 50.052 157.386 49.86C157.73 49.66 158.002 49.376 158.202 49.008C158.402 48.632 158.502 48.196 158.502 47.7ZM164.655 44.304C165.455 44.304 166.103 44.548 166.599 45.036C167.095 45.516 167.343 46.212 167.343 47.124V51H166.263V47.28C166.263 46.624 166.099 46.124 165.771 45.78C165.443 45.428 164.995 45.252 164.427 45.252C163.851 45.252 163.391 45.432 163.047 45.792C162.711 46.152 162.543 46.676 162.543 47.364V51H161.451V44.424H162.543V45.36C162.759 45.024 163.051 44.764 163.419 44.58C163.795 44.396 164.207 44.304 164.655 44.304Z" fill="black"/>
</svg>
