<svg width="191" height="48" viewBox="0 0 191 48" fill="none" xmlns="http://www.w3.org/2000/svg">
<path d="M55.32 23.14C54.2933 23.14 53.3733 22.9733 52.56 22.64C51.7467 22.3067 51.0933 21.8133 50.6 21.16C50.12 20.5067 49.8667 19.72 49.84 18.8H53.48C53.5333 19.32 53.7133 19.72 54.02 20C54.3267 20.2667 54.7267 20.4 55.22 20.4C55.7267 20.4 56.1267 20.2867 56.42 20.06C56.7133 19.82 56.86 19.4933 56.86 19.08C56.86 18.7333 56.74 18.4467 56.5 18.22C56.2733 17.9933 55.9867 17.8067 55.64 17.66C55.3067 17.5133 54.8267 17.3467 54.2 17.16C53.2933 16.88 52.5533 16.6 51.98 16.32C51.4067 16.04 50.9133 15.6267 50.5 15.08C50.0867 14.5333 49.88 13.82 49.88 12.94C49.88 11.6333 50.3533 10.6133 51.3 9.88C52.2467 9.13333 53.48 8.76 55 8.76C56.5467 8.76 57.7933 9.13333 58.74 9.88C59.6867 10.6133 60.1933 11.64 60.26 12.96H56.56C56.5333 12.5067 56.3667 12.1533 56.06 11.9C55.7533 11.6333 55.36 11.5 54.88 11.5C54.4667 11.5 54.1333 11.6133 53.88 11.84C53.6267 12.0533 53.5 12.3667 53.5 12.78C53.5 13.2333 53.7133 13.5867 54.14 13.84C54.5667 14.0933 55.2333 14.3667 56.14 14.66C57.0467 14.9667 57.78 15.26 58.34 15.54C58.9133 15.82 59.4067 16.2267 59.82 16.76C60.2333 17.2933 60.44 17.98 60.44 18.82C60.44 19.62 60.2333 20.3467 59.82 21C59.42 21.6533 58.8333 22.1733 58.06 22.56C57.2867 22.9467 56.3733 23.14 55.32 23.14ZM73.0647 17.24C73.0647 17.56 73.0447 17.8933 73.0047 18.24H65.2647C65.318 18.9333 65.538 19.4667 65.9247 19.84C66.3247 20.2 66.8114 20.38 67.3847 20.38C68.238 20.38 68.8314 20.02 69.1647 19.3H72.8047C72.618 20.0333 72.278 20.6933 71.7847 21.28C71.3047 21.8667 70.698 22.3267 69.9647 22.66C69.2314 22.9933 68.4114 23.16 67.5047 23.16C66.4114 23.16 65.438 22.9267 64.5847 22.46C63.7314 21.9933 63.0647 21.3267 62.5847 20.46C62.1047 19.5933 61.8647 18.58 61.8647 17.42C61.8647 16.26 62.098 15.2467 62.5647 14.38C63.0447 13.5133 63.7114 12.8467 64.5647 12.38C65.418 11.9133 66.398 11.68 67.5047 11.68C68.5847 11.68 69.5447 11.9067 70.3847 12.36C71.2247 12.8133 71.878 13.46 72.3447 14.3C72.8247 15.14 73.0647 16.12 73.0647 17.24ZM69.5647 16.34C69.5647 15.7533 69.3647 15.2867 68.9647 14.94C68.5647 14.5933 68.0647 14.42 67.4647 14.42C66.8914 14.42 66.4047 14.5867 66.0047 14.92C65.618 15.2533 65.378 15.7267 65.2847 16.34H69.5647ZM90.8889 11.84L87.8689 23H84.0889L82.3289 15.76L80.5089 23H76.7489L73.7089 11.84H77.1289L78.7089 19.82L80.5889 11.84H84.2089L86.1089 19.78L87.6689 11.84H90.8889ZM91.5131 17.4C91.5131 16.2533 91.7265 15.2467 92.1531 14.38C92.5931 13.5133 93.1865 12.8467 93.9331 12.38C94.6798 11.9133 95.5131 11.68 96.4331 11.68C97.2198 11.68 97.9065 11.84 98.4931 12.16C99.0931 12.48 99.5531 12.9 99.8731 13.42V11.84H103.293V23H99.8731V21.42C99.5398 21.94 99.0731 22.36 98.4731 22.68C97.8865 23 97.1998 23.16 96.4131 23.16C95.5065 23.16 94.6798 22.9267 93.9331 22.46C93.1865 21.98 92.5931 21.3067 92.1531 20.44C91.7265 19.56 91.5131 18.5467 91.5131 17.4ZM99.8731 17.42C99.8731 16.5667 99.6331 15.8933 99.1531 15.4C98.6865 14.9067 98.1131 14.66 97.4331 14.66C96.7531 14.66 96.1731 14.9067 95.6931 15.4C95.2265 15.88 94.9931 16.5467 94.9931 17.4C94.9931 18.2533 95.2265 18.9333 95.6931 19.44C96.1731 19.9333 96.7531 20.18 97.4331 20.18C98.1131 20.18 98.6865 19.9333 99.1531 19.44C99.6331 18.9467 99.8731 18.2733 99.8731 17.42ZM119.326 13.4C119.072 12.9333 118.706 12.58 118.226 12.34C117.759 12.0867 117.206 11.96 116.566 11.96C115.459 11.96 114.572 12.3267 113.906 13.06C113.239 13.78 112.906 14.7467 112.906 15.96C112.906 17.2533 113.252 18.2667 113.946 19C114.652 19.72 115.619 20.08 116.846 20.08C117.686 20.08 118.392 19.8667 118.966 19.44C119.552 19.0133 119.979 18.4 120.246 17.6H115.906V15.08H123.346V18.26C123.092 19.1133 122.659 19.9067 122.046 20.64C121.446 21.3733 120.679 21.9667 119.746 22.42C118.812 22.8733 117.759 23.1 116.586 23.1C115.199 23.1 113.959 22.8 112.866 22.2C111.786 21.5867 110.939 20.74 110.326 19.66C109.726 18.58 109.426 17.3467 109.426 15.96C109.426 14.5733 109.726 13.34 110.326 12.26C110.939 11.1667 111.786 10.32 112.866 9.72C113.946 9.10667 115.179 8.8 116.566 8.8C118.246 8.8 119.659 9.20667 120.806 10.02C121.966 10.8333 122.732 11.96 123.106 13.4H119.326ZM135.76 17.24C135.76 17.56 135.74 17.8933 135.7 18.24H127.96C128.013 18.9333 128.233 19.4667 128.62 19.84C129.02 20.2 129.507 20.38 130.08 20.38C130.933 20.38 131.527 20.02 131.86 19.3H135.5C135.313 20.0333 134.973 20.6933 134.48 21.28C134 21.8667 133.393 22.3267 132.66 22.66C131.927 22.9933 131.107 23.16 130.2 23.16C129.107 23.16 128.133 22.9267 127.28 22.46C126.427 21.9933 125.76 21.3267 125.28 20.46C124.8 19.5933 124.56 18.58 124.56 17.42C124.56 16.26 124.793 15.2467 125.26 14.38C125.74 13.5133 126.407 12.8467 127.26 12.38C128.113 11.9133 129.093 11.68 130.2 11.68C131.28 11.68 132.24 11.9067 133.08 12.36C133.92 12.8133 134.573 13.46 135.04 14.3C135.52 15.14 135.76 16.12 135.76 17.24ZM132.26 16.34C132.26 15.7533 132.06 15.2867 131.66 14.94C131.26 14.5933 130.76 14.42 130.16 14.42C129.587 14.42 129.1 14.5867 128.7 14.92C128.313 15.2533 128.073 15.7267 127.98 16.34H132.26ZM136.884 17.4C136.884 16.2533 137.098 15.2467 137.524 14.38C137.964 13.5133 138.558 12.8467 139.304 12.38C140.051 11.9133 140.884 11.68 141.804 11.68C142.538 11.68 143.204 11.8333 143.804 12.14C144.418 12.4467 144.898 12.86 145.244 13.38V8.2H148.664V23H145.244V21.4C144.924 21.9333 144.464 22.36 143.864 22.68C143.278 23 142.591 23.16 141.804 23.16C140.884 23.16 140.051 22.9267 139.304 22.46C138.558 21.98 137.964 21.3067 137.524 20.44C137.098 19.56 136.884 18.5467 136.884 17.4ZM145.244 17.42C145.244 16.5667 145.004 15.8933 144.524 15.4C144.058 14.9067 143.484 14.66 142.804 14.66C142.124 14.66 141.544 14.9067 141.064 15.4C140.598 15.88 140.364 16.5467 140.364 17.4C140.364 18.2533 140.598 18.9333 141.064 19.44C141.544 19.9333 142.124 20.18 142.804 20.18C143.484 20.18 144.058 19.9333 144.524 19.44C145.004 18.9467 145.244 18.2733 145.244 17.42ZM162.158 11.84V23H158.738V21.48C158.392 21.9733 157.918 22.3733 157.318 22.68C156.732 22.9733 156.078 23.12 155.358 23.12C154.505 23.12 153.752 22.9333 153.098 22.56C152.445 22.1733 151.938 21.62 151.578 20.9C151.218 20.18 151.038 19.3333 151.038 18.36V11.84H154.438V17.9C154.438 18.6467 154.632 19.2267 155.018 19.64C155.405 20.0533 155.925 20.26 156.578 20.26C157.245 20.26 157.772 20.0533 158.158 19.64C158.545 19.2267 158.738 18.6467 158.738 17.9V11.84H162.158ZM171.415 11.72C172.722 11.72 173.762 12.1467 174.535 13C175.322 13.84 175.715 15 175.715 16.48V23H172.315V16.94C172.315 16.1933 172.122 15.6133 171.735 15.2C171.348 14.7867 170.828 14.58 170.175 14.58C169.522 14.58 169.002 14.7867 168.615 15.2C168.228 15.6133 168.035 16.1933 168.035 16.94V23H164.615V11.84H168.035V13.32C168.382 12.8267 168.848 12.44 169.435 12.16C170.022 11.8667 170.682 11.72 171.415 11.72ZM182.332 11.68C183.118 11.68 183.805 11.84 184.392 12.16C184.992 12.48 185.452 12.9 185.772 13.42V11.84H189.192V22.98C189.192 24.0067 188.985 24.9333 188.572 25.76C188.172 26.6 187.552 27.2667 186.712 27.76C185.885 28.2533 184.852 28.5 183.612 28.5C181.958 28.5 180.618 28.1067 179.592 27.32C178.565 26.5467 177.978 25.4933 177.832 24.16H181.212C181.318 24.5867 181.572 24.92 181.972 25.16C182.372 25.4133 182.865 25.54 183.452 25.54C184.158 25.54 184.718 25.3333 185.132 24.92C185.558 24.52 185.772 23.8733 185.772 22.98V21.4C185.438 21.92 184.978 22.3467 184.392 22.68C183.805 23 183.118 23.16 182.332 23.16C181.412 23.16 180.578 22.9267 179.832 22.46C179.085 21.98 178.492 21.3067 178.052 20.44C177.625 19.56 177.412 18.5467 177.412 17.4C177.412 16.2533 177.625 15.2467 178.052 14.38C178.492 13.5133 179.085 12.8467 179.832 12.38C180.578 11.9133 181.412 11.68 182.332 11.68ZM185.772 17.42C185.772 16.5667 185.532 15.8933 185.052 15.4C184.585 14.9067 184.012 14.66 183.332 14.66C182.652 14.66 182.072 14.9067 181.592 15.4C181.125 15.88 180.892 16.5467 180.892 17.4C180.892 18.2533 181.125 18.9333 181.592 19.44C182.072 19.9333 182.652 20.18 183.332 20.18C184.012 20.18 184.585 19.9333 185.052 19.44C185.532 18.9467 185.772 18.2733 185.772 17.42Z" fill="#211B3D"/>
<path d="M49.516 37.812C49.516 36.996 49.7 36.264 50.068 35.616C50.436 34.96 50.936 34.448 51.568 34.08C52.208 33.712 52.916 33.528 53.692 33.528C54.604 33.528 55.4 33.748 56.08 34.188C56.76 34.628 57.256 35.252 57.568 36.06H56.26C56.028 35.556 55.692 35.168 55.252 34.896C54.82 34.624 54.3 34.488 53.692 34.488C53.108 34.488 52.584 34.624 52.12 34.896C51.656 35.168 51.292 35.556 51.028 36.06C50.764 36.556 50.632 37.14 50.632 37.812C50.632 38.476 50.764 39.06 51.028 39.564C51.292 40.06 51.656 40.444 52.12 40.716C52.584 40.988 53.108 41.124 53.692 41.124C54.3 41.124 54.82 40.992 55.252 40.728C55.692 40.456 56.028 40.068 56.26 39.564H57.568C57.256 40.364 56.76 40.984 56.08 41.424C55.4 41.856 54.604 42.072 53.692 42.072C52.916 42.072 52.208 41.892 51.568 41.532C50.936 41.164 50.436 40.656 50.068 40.008C49.7 39.36 49.516 38.628 49.516 37.812ZM65.1935 38.46C65.1935 38.668 65.1815 38.888 65.1575 39.12H59.9015C59.9415 39.768 60.1615 40.276 60.5615 40.644C60.9695 41.004 61.4615 41.184 62.0375 41.184C62.5095 41.184 62.9015 41.076 63.2135 40.86C63.5335 40.636 63.7575 40.34 63.8855 39.972H65.0615C64.8855 40.604 64.5335 41.12 64.0055 41.52C63.4775 41.912 62.8215 42.108 62.0375 42.108C61.4135 42.108 60.8535 41.968 60.3575 41.688C59.8695 41.408 59.4855 41.012 59.2055 40.5C58.9255 39.98 58.7855 39.38 58.7855 38.7C58.7855 38.02 58.9215 37.424 59.1935 36.912C59.4655 36.4 59.8455 36.008 60.3335 35.736C60.8295 35.456 61.3975 35.316 62.0375 35.316C62.6615 35.316 63.2135 35.452 63.6935 35.724C64.1735 35.996 64.5415 36.372 64.7975 36.852C65.0615 37.324 65.1935 37.86 65.1935 38.46ZM64.0655 38.232C64.0655 37.816 63.9735 37.46 63.7895 37.164C63.6055 36.86 63.3535 36.632 63.0335 36.48C62.7215 36.32 62.3735 36.24 61.9895 36.24C61.4375 36.24 60.9655 36.416 60.5735 36.768C60.1895 37.12 59.9695 37.608 59.9135 38.232H64.0655ZM67.7269 36.636C67.9429 36.26 68.2629 35.948 68.6869 35.7C69.1189 35.444 69.6189 35.316 70.1869 35.316C70.7709 35.316 71.2989 35.456 71.7709 35.736C72.2509 36.016 72.6269 36.412 72.8989 36.924C73.1709 37.428 73.3069 38.016 73.3069 38.688C73.3069 39.352 73.1709 39.944 72.8989 40.464C72.6269 40.984 72.2509 41.388 71.7709 41.676C71.2989 41.964 70.7709 42.108 70.1869 42.108C69.6269 42.108 69.1309 41.984 68.6989 41.736C68.2749 41.48 67.9509 41.164 67.7269 40.788V45.12H66.6349V35.424H67.7269V36.636ZM72.1909 38.688C72.1909 38.192 72.0909 37.76 71.8909 37.392C71.6909 37.024 71.4189 36.744 71.0749 36.552C70.7389 36.36 70.3669 36.264 69.9589 36.264C69.5589 36.264 69.1869 36.364 68.8429 36.564C68.5069 36.756 68.2349 37.04 68.0269 37.416C67.8269 37.784 67.7269 38.212 67.7269 38.7C67.7269 39.196 67.8269 39.632 68.0269 40.008C68.2349 40.376 68.5069 40.66 68.8429 40.86C69.1869 41.052 69.5589 41.148 69.9589 41.148C70.3669 41.148 70.7389 41.052 71.0749 40.86C71.4189 40.66 71.6909 40.376 71.8909 40.008C72.0909 39.632 72.1909 39.192 72.1909 38.688ZM74.3363 38.688C74.3363 38.016 74.4723 37.428 74.7443 36.924C75.0163 36.412 75.3883 36.016 75.8603 35.736C76.3403 35.456 76.8723 35.316 77.4563 35.316C78.0323 35.316 78.5323 35.44 78.9563 35.688C79.3803 35.936 79.6963 36.248 79.9043 36.624V35.424H81.0083V42H79.9043V40.776C79.6883 41.16 79.3643 41.48 78.9323 41.736C78.5083 41.984 78.0123 42.108 77.4443 42.108C76.8603 42.108 76.3323 41.964 75.8603 41.676C75.3883 41.388 75.0163 40.984 74.7443 40.464C74.4723 39.944 74.3363 39.352 74.3363 38.688ZM79.9043 38.7C79.9043 38.204 79.8043 37.772 79.6043 37.404C79.4043 37.036 79.1323 36.756 78.7883 36.564C78.4523 36.364 78.0803 36.264 77.6723 36.264C77.2643 36.264 76.8923 36.36 76.5563 36.552C76.2203 36.744 75.9523 37.024 75.7523 37.392C75.5523 37.76 75.4523 38.192 75.4523 38.688C75.4523 39.192 75.5523 39.632 75.7523 40.008C75.9523 40.376 76.2203 40.66 76.5563 40.86C76.8923 41.052 77.2643 41.148 77.6723 41.148C78.0803 41.148 78.4523 41.052 78.7883 40.86C79.1323 40.66 79.4043 40.376 79.6043 40.008C79.8043 39.632 79.9043 39.196 79.9043 38.7ZM84.1857 36.324V40.2C84.1857 40.52 84.2537 40.748 84.3897 40.884C84.5257 41.012 84.7617 41.076 85.0977 41.076H85.9017V42H84.9177C84.3097 42 83.8537 41.86 83.5497 41.58C83.2457 41.3 83.0937 40.84 83.0937 40.2V36.324H82.2417V35.424H83.0937V33.768H84.1857V35.424H85.9017V36.324H84.1857ZM93.028 33.636C93.94 33.636 94.728 33.808 95.392 34.152C96.064 34.488 96.576 34.972 96.928 35.604C97.288 36.236 97.468 36.98 97.468 37.836C97.468 38.692 97.288 39.436 96.928 40.068C96.576 40.692 96.064 41.172 95.392 41.508C94.728 41.836 93.94 42 93.028 42H90.424V33.636H93.028ZM93.028 41.1C94.108 41.1 94.932 40.816 95.5 40.248C96.068 39.672 96.352 38.868 96.352 37.836C96.352 36.796 96.064 35.984 95.488 35.4C94.92 34.816 94.1 34.524 93.028 34.524H91.516V41.1H93.028ZM98.5004 38.688C98.5004 38.016 98.6364 37.428 98.9084 36.924C99.1804 36.412 99.5524 36.016 100.024 35.736C100.504 35.456 101.036 35.316 101.62 35.316C102.196 35.316 102.696 35.44 103.12 35.688C103.544 35.936 103.86 36.248 104.068 36.624V35.424H105.172V42H104.068V40.776C103.852 41.16 103.528 41.48 103.096 41.736C102.672 41.984 102.176 42.108 101.608 42.108C101.024 42.108 100.496 41.964 100.024 41.676C99.5524 41.388 99.1804 40.984 98.9084 40.464C98.6364 39.944 98.5004 39.352 98.5004 38.688ZM104.068 38.7C104.068 38.204 103.968 37.772 103.768 37.404C103.568 37.036 103.296 36.756 102.952 36.564C102.616 36.364 102.244 36.264 101.836 36.264C101.428 36.264 101.056 36.36 100.72 36.552C100.384 36.744 100.116 37.024 99.9164 37.392C99.7164 37.76 99.6164 38.192 99.6164 38.688C99.6164 39.192 99.7164 39.632 99.9164 40.008C100.116 40.376 100.384 40.66 100.72 40.86C101.056 41.052 101.428 41.148 101.836 41.148C102.244 41.148 102.616 41.052 102.952 40.86C103.296 40.66 103.568 40.376 103.768 40.008C103.968 39.632 104.068 39.196 104.068 38.7ZM110.222 35.304C111.022 35.304 111.67 35.548 112.166 36.036C112.662 36.516 112.91 37.212 112.91 38.124V42H111.83V38.28C111.83 37.624 111.666 37.124 111.338 36.78C111.01 36.428 110.562 36.252 109.994 36.252C109.418 36.252 108.958 36.432 108.614 36.792C108.278 37.152 108.11 37.676 108.11 38.364V42H107.018V35.424H108.11V36.36C108.326 36.024 108.618 35.764 108.986 35.58C109.362 35.396 109.774 35.304 110.222 35.304ZM122.837 40.14H119.189L118.517 42H117.365L120.389 33.684H121.649L124.661 42H123.509L122.837 40.14ZM122.525 39.252L121.013 35.028L119.501 39.252H122.525ZM133.887 35.304C134.399 35.304 134.855 35.412 135.255 35.628C135.655 35.836 135.971 36.152 136.203 36.576C136.435 37 136.551 37.516 136.551 38.124V42H135.471V38.28C135.471 37.624 135.307 37.124 134.979 36.78C134.659 36.428 134.223 36.252 133.671 36.252C133.103 36.252 132.651 36.436 132.315 36.804C131.979 37.164 131.811 37.688 131.811 38.376V42H130.731V38.28C130.731 37.624 130.567 37.124 130.239 36.78C129.919 36.428 129.483 36.252 128.931 36.252C128.363 36.252 127.911 36.436 127.575 36.804C127.239 37.164 127.071 37.688 127.071 38.376V42H125.979V35.424H127.071V36.372C127.287 36.028 127.575 35.764 127.935 35.58C128.303 35.396 128.707 35.304 129.147 35.304C129.699 35.304 130.187 35.428 130.611 35.676C131.035 35.924 131.351 36.288 131.559 36.768C131.743 36.304 132.047 35.944 132.471 35.688C132.895 35.432 133.367 35.304 133.887 35.304ZM137.934 38.688C137.934 38.016 138.07 37.428 138.342 36.924C138.614 36.412 138.986 36.016 139.458 35.736C139.938 35.456 140.47 35.316 141.054 35.316C141.63 35.316 142.13 35.44 142.554 35.688C142.978 35.936 143.294 36.248 143.502 36.624V35.424H144.606V42H143.502V40.776C143.286 41.16 142.962 41.48 142.53 41.736C142.106 41.984 141.61 42.108 141.042 42.108C140.458 42.108 139.93 41.964 139.458 41.676C138.986 41.388 138.614 40.984 138.342 40.464C138.07 39.944 137.934 39.352 137.934 38.688ZM143.502 38.7C143.502 38.204 143.402 37.772 143.202 37.404C143.002 37.036 142.73 36.756 142.386 36.564C142.05 36.364 141.678 36.264 141.27 36.264C140.862 36.264 140.49 36.36 140.154 36.552C139.818 36.744 139.55 37.024 139.35 37.392C139.15 37.76 139.05 38.192 139.05 38.688C139.05 39.192 139.15 39.632 139.35 40.008C139.55 40.376 139.818 40.66 140.154 40.86C140.49 41.052 140.862 41.148 141.27 41.148C141.678 41.148 142.05 41.052 142.386 40.86C142.73 40.66 143.002 40.376 143.202 40.008C143.402 39.632 143.502 39.196 143.502 38.7ZM149.655 35.304C150.455 35.304 151.103 35.548 151.599 36.036C152.095 36.516 152.343 37.212 152.343 38.124V42H151.263V38.28C151.263 37.624 151.099 37.124 150.771 36.78C150.443 36.428 149.995 36.252 149.427 36.252C148.851 36.252 148.391 36.432 148.047 36.792C147.711 37.152 147.543 37.676 147.543 38.364V42H146.451V35.424H147.543V36.36C147.759 36.024 148.051 35.764 148.419 35.58C148.795 35.396 149.207 35.304 149.655 35.304Z" fill="black"/>
<rect width="39" height="48" rx="2" fill="#4D1DAB"/>
<rect x="10" y="11" width="19" height="3" rx="1.5" fill="white"/>
<rect x="10" y="22" width="19" height="3" rx="1.5" fill="white"/>
<rect x="10" y="33" width="13" height="3" rx="1.5" fill="white"/>
</svg>
